# xmcd CD database file
#
# Track frame offsets:
#	150
#	20992
#	43965
#	76052
#
# Disc length: 4440 seconds
#
# Revision: 0
# Processed by: cddbd v1.5PL3 Copyright (c) Steve Scherf et al.
# Submitted via: CDex 1.50
#
DISCID=2d115604
DTITLE=竹内めぐみ - 何もない僕等
DYEAR=2003
DGENRE=JPop
TTITLE0=何もない僕等
TTITLE1=さよならの音
TTITLE2=何もない僕等(Instrumental)
TTITLE3=data
EXTD=YEAR: 2003
EXTT0=
EXTT1=
EXTT2=
EXTT3=
PLAYORDER=
